<?xml version="1.0" encoding="UTF-8"?>
<svg id="Ebene_1" data-name="Ebene 1" xmlns="http://www.w3.org/2000/svg" xmlns:xlink="http://www.w3.org/1999/xlink" viewBox="0 0 3115.25 1054.62">
  <defs>
    <style>
      .cls-1 {
        fill: url(#Unbenannter_Verlauf_278);
      }

      .cls-2 {
        letter-spacing: -.04em;
      }

      .cls-3 {
        opacity: .5;
      }

      .cls-3, .cls-4 {
        fill: #fff;
      }

      .cls-5 {
        letter-spacing: -.09em;
      }

      .cls-6 {
        fill: #010101;
      }

      .cls-7 {
        fill: #fffefa;
        font-size: 291.01px;
      }

      .cls-7, .cls-4 {
        font-family: BlinkMacSystemFont-Heavy, BlinkMacSystemFont;
        font-weight: 800;
      }

      .cls-4 {
        font-size: 380.18px;
      }

      .cls-8 {
        letter-spacing: -.04em;
      }
    </style>
    <linearGradient id="Unbenannter_Verlauf_278" data-name="Unbenannter Verlauf 278" x1="2463.76" y1="452.01" x2="2463.76" y2="174.86" gradientTransform="translate(0 75.3)" gradientUnits="userSpaceOnUse">
      <stop offset="0" stop-color="#fff"/>
      <stop offset="0" stop-color="#f6f6f6"/>
      <stop offset="1" stop-color="#4e4d4d"/>
    </linearGradient>
  </defs>
  <g>
    <polygon class="cls-3" points="1547.48 593.56 1349.73 1054.62 1945.68 460.23 1686.26 454.78 1881.28 0 1284.43 593.56 1547.48 593.56"/>
    <text class="cls-4" transform="translate(1.74 522.67)"><tspan x="0" y="0">NORISK</tspan></text>
    <g>
      <g>
        <path class="cls-6" d="M1942.4,527.31c-40.35,0-72.12-12.22-95.32-36.66-23.2-24.44-34.81-58.45-34.81-102.01s11.63-77.38,34.9-101.82c23.26-24.44,55.01-36.66,95.23-36.66,22.4,0,42.7,4.49,60.89,13.46,18.19,8.97,32.64,21.6,43.35,37.87,10.7,16.27,16.37,34.81,16.99,55.6h-65.53c-1.61-15.72-7.55-28.37-17.82-37.96-10.27-9.59-22.9-14.39-37.87-14.39-18.69,0-33.48,7.49-44.37,22.46-10.89,14.98-16.34,35.4-16.34,61.26s5.44,46.84,16.34,61.82c10.89,14.98,25.74,22.46,44.55,22.46,14.97,0,27.5-4.58,37.59-13.74,10.09-9.16,16.18-21.6,18.29-37.31h65.53c-1.61,31.68-13.61,57.21-36.01,76.57-22.4,19.37-50.93,29.05-85.58,29.05Z"/>
        <path class="cls-6" d="M2274.87,467.72v54.95h-178.95V254.79h68.13v212.92h110.82Z"/>
        <path class="cls-6" d="M2374.19,522.67h-68.13V254.79h68.13v267.87Z"/>
        <path class="cls-6" d="M2598.25,467.72v54.95h-183.59V254.79h183.59v54.95h-115.47v53.28h108.6v50.12h-108.6v54.58h115.47Z"/>
        <path class="cls-6" d="M2701.28,522.67h-64.6V254.79h54.39l113.61,155.75h1.49v-155.75h64.6v267.87h-53.83l-114.17-157.23h-1.49v157.23Z"/>
        <path class="cls-6" d="M3041.37,522.67h-67.94v-212.92h-73.88v-54.95h215.71v54.95h-73.88v212.92Z"/>
      </g>
      <g>
        <path class="cls-1" d="M1942.4,527.31c-40.35,0-72.12-12.22-95.32-36.66-23.2-24.44-34.81-58.45-34.81-102.01s11.63-77.38,34.9-101.82c23.26-24.44,55.01-36.66,95.23-36.66,22.4,0,42.7,4.49,60.89,13.46,18.19,8.97,32.64,21.6,43.35,37.87,10.7,16.27,16.37,34.81,16.99,55.6h-65.53c-1.61-15.72-7.55-28.37-17.82-37.96-10.27-9.59-22.9-14.39-37.87-14.39-18.69,0-33.48,7.49-44.37,22.46-10.89,14.98-16.34,35.4-16.34,61.26s5.44,46.84,16.34,61.82c10.89,14.98,25.74,22.46,44.55,22.46,14.97,0,27.5-4.58,37.59-13.74,10.09-9.16,16.18-21.6,18.29-37.31h65.53c-1.61,31.68-13.61,57.21-36.01,76.57-22.4,19.37-50.93,29.05-85.58,29.05Z"/>
        <path class="cls-1" d="M2274.87,467.72v54.95h-178.95V254.79h68.13v212.92h110.82Z"/>
        <path class="cls-1" d="M2374.19,522.67h-68.13V254.79h68.13v267.87Z"/>
        <path class="cls-1" d="M2598.25,467.72v54.95h-183.59V254.79h183.59v54.95h-115.47v53.28h108.6v50.12h-108.6v54.58h115.47Z"/>
        <path class="cls-1" d="M2701.28,522.67h-64.6V254.79h54.39l113.61,155.75h1.49v-155.75h64.6v267.87h-53.83l-114.17-157.23h-1.49v157.23Z"/>
        <path class="cls-1" d="M3041.37,522.67h-67.94v-212.92h-73.88v-54.95h215.71v54.95h-73.88v212.92Z"/>
      </g>
    </g>
  </g>
  <text class="cls-7" transform="translate(476.84 793.34)"><tspan class="cls-8" x="0" y="0">C</tspan><tspan x="200.64" y="0">APE CRE</tspan><tspan class="cls-5" x="1396.66" y="0">A</tspan><tspan class="cls-2" x="1579.25" y="0">T</tspan><tspan x="1746.78" y="0">OR</tspan></text>
</svg>